<svg width="20" height="19" viewBox="0 0 20 19" fill="none" xmlns="http://www.w3.org/2000/svg">
<path d="M5.43953 6.57692C5.43953 6.17333 5.76537 5.84615 6.16733 5.84615H6.40993C6.81187 5.84615 7.13772 6.17333 7.13772 6.57692C7.13772 6.98051 6.81187 7.30769 6.40993 7.30769H6.16733C5.76537 7.30769 5.43953 6.98051 5.43953 6.57692Z" fill="#505050"/>
<path d="M6.16733 9.74359C5.76537 9.74359 5.43953 10.0708 5.43953 10.4744C5.43953 10.8779 5.76537 11.2051 6.16733 11.2051H6.40993C6.81187 11.2051 7.13772 10.8779 7.13772 10.4744C7.13772 10.0708 6.81187 9.74359 6.40993 9.74359H6.16733Z" fill="#505050"/>
<path d="M9.32109 6.57692C9.32109 6.17333 9.64695 5.84615 10.0489 5.84615H10.2915C10.6934 5.84615 11.0193 6.17333 11.0193 6.57692C11.0193 6.98051 10.6934 7.30769 10.2915 7.30769H10.0489C9.64695 7.30769 9.32109 6.98051 9.32109 6.57692Z" fill="#505050"/>
<path d="M10.0489 9.74359C9.64695 9.74359 9.32109 10.0708 9.32109 10.4744C9.32109 10.8779 9.64695 11.2051 10.0489 11.2051H10.2915C10.6934 11.2051 11.0193 10.8779 11.0193 10.4744C11.0193 10.0708 10.6934 9.74359 10.2915 9.74359H10.0489Z" fill="#505050"/>
<path d="M13.2027 6.57692C13.2027 6.17333 13.5285 5.84615 13.9305 5.84615H14.1731C14.575 5.84615 14.9009 6.17333 14.9009 6.57692C14.9009 6.98051 14.575 7.30769 14.1731 7.30769H13.9305C13.5285 7.30769 13.2027 6.98051 13.2027 6.57692Z" fill="#505050"/>
<path d="M13.9305 9.74359C13.5285 9.74359 13.2027 10.0708 13.2027 10.4744C13.2027 10.8779 13.5285 11.2051 13.9305 11.2051H14.1731C14.575 11.2051 14.9009 10.8779 14.9009 10.4744C14.9009 10.0708 14.575 9.74359 14.1731 9.74359H13.9305Z" fill="#505050"/>
<path fill-rule="evenodd" clip-rule="evenodd" d="M7.86552 0.730769C7.86552 0.32718 7.53967 0 7.13772 0C6.73577 0 6.40993 0.32718 6.40993 0.730769V0.974836H5.17938C2.90166 0.974836 1.05521 2.82884 1.05521 5.11586V7.06652L1.05531 7.07939C1.09729 9.47155 0.926153 10.6645 0.737576 11.353C0.645175 11.6905 0.54506 11.92 0.445682 12.1329C0.433241 12.1596 0.42017 12.1873 0.406662 12.2157C0.316513 12.4062 0.206499 12.6387 0.130663 12.9079C-0.0240569 13.4572 -0.0456483 13.9691 0.0888483 14.4291C0.225703 14.8972 0.505924 15.2484 0.843349 15.497C0.921243 15.5544 1.00221 15.6064 1.08545 15.6536C1.24092 17.5276 2.80508 19 4.71174 19H15.8713C18.149 19 19.9954 17.146 19.9954 14.859V10.3719C20.0007 10.1986 20.0014 10.0216 19.9976 9.84103V5.11586C19.9976 2.82884 18.1511 0.974836 15.8734 0.974836H14.6583V0.730769C14.6583 0.32718 14.3324 0 13.9305 0C13.5285 0 13.2027 0.32718 13.2027 0.730769V0.974836H7.86552V0.730769ZM6.40993 2.43638V2.67949C6.40993 3.08308 6.73577 3.41026 7.13772 3.41026C7.53967 3.41026 7.86552 3.08308 7.86552 2.67949V2.43638H13.2027V2.67949C13.2027 3.08308 13.5285 3.41026 13.9305 3.41026C14.3324 3.41026 14.6583 3.08308 14.6583 2.67949V2.43638H15.8734C17.3472 2.43638 18.542 3.63603 18.542 5.11586V9.5H18.5398V10.3514C18.4909 11.8445 18.0548 12.8736 17.4732 13.5348C16.8324 14.2632 15.9549 14.6154 15.0173 14.6154H2.94227C2.43488 14.6154 1.96883 14.5135 1.70453 14.3187C1.59041 14.2346 1.52121 14.1395 1.4855 14.0174C1.44743 13.8872 1.43013 13.6649 1.53132 13.3057C1.57171 13.1622 1.62536 13.048 1.71775 12.8513L1.76372 12.7532C1.88124 12.5014 2.01832 12.1887 2.14107 11.7405C2.38257 10.8587 2.55342 9.50857 2.5108 7.06011V5.11586C2.5108 3.63603 3.70556 2.43638 5.17938 2.43638H6.40993ZM18.5398 14.859V14.5298C17.5982 15.5839 16.3186 16.0769 15.0173 16.0769H2.94227C2.84949 16.0769 2.75146 16.0744 2.64967 16.0685C2.94705 16.9244 3.75798 17.5385 4.71174 17.5385H15.8713C17.3451 17.5385 18.5398 16.3388 18.5398 14.859Z" fill="#505050"/>
</svg>
