<svg width="22" height="22" viewBox="0 0 22 22" fill="none" xmlns="http://www.w3.org/2000/svg">
<path d="M8.99172 8.75C8.99172 7.92187 9.66342 7.25 10.4926 7.25C11.3219 7.25 11.9936 7.92187 11.9936 8.75V9.0538C11.9936 9.5891 11.7557 10.0967 11.3442 10.4395L10.8772 10.8285C10.6125 11.049 10.3119 11.3035 10.095 11.6297C9.85492 11.9908 9.74262 12.3938 9.74262 12.8777C9.74262 13.2919 10.0784 13.6277 10.4926 13.6277C10.9068 13.6277 11.2426 13.2919 11.2426 12.8777C11.2426 12.6486 11.2887 12.5434 11.344 12.4603C11.4224 12.3424 11.5541 12.2169 11.8372 11.9811L12.3043 11.592C13.0578 10.9644 13.4936 10.0345 13.4936 9.0538V8.75C13.4936 7.09285 12.1497 5.75 10.4926 5.75C8.83552 5.75 7.4917 7.09285 7.4917 8.75C7.4917 9.1642 7.82748 9.5 8.2417 9.5C8.65591 9.5 8.99172 9.1642 8.99172 8.75Z" fill="#333333"/>
<path d="M10.4926 14.75C10.0784 14.75 9.74261 15.0858 9.74261 15.5C9.74261 15.9142 10.0784 16.25 10.4926 16.25H10.5026C10.9168 16.25 11.2526 15.9142 11.2526 15.5C11.2526 15.0858 10.9168 14.75 10.5026 14.75H10.4926Z" fill="#333333"/>
<path fill-rule="evenodd" clip-rule="evenodd" d="M10.7425 0.25C4.80543 0.25 -0.00750732 5.06294 -0.00750732 11C-0.00750732 16.9371 4.80543 21.75 10.7425 21.75C16.6796 21.75 21.4925 16.9371 21.4925 11C21.4925 5.06294 16.6796 0.25 10.7425 0.25ZM1.49249 11C1.49249 5.89137 5.63386 1.75 10.7425 1.75C15.8511 1.75 19.9925 5.89137 19.9925 11C19.9925 16.1086 15.8511 20.25 10.7425 20.25C5.63386 20.25 1.49249 16.1086 1.49249 11Z" fill="#333333"/>
</svg>
