<svg width="23" height="26" viewBox="0 0 23 26" fill="none" xmlns="http://www.w3.org/2000/svg">
<path d="M21.2308 4.9095C19.9004 4.89156 18.4985 4.45655 16.9425 3.49942C14.1867 1.80409 12.0095 1.81416 11.5001 1.81416C10.9906 1.81416 8.81345 1.80409 6.0576 3.49942C4.50164 4.45655 3.0997 4.89156 1.76929 4.9095V13.0004C1.76929 13.2564 1.79818 13.6442 1.8361 13.7987C2.46332 16.3541 4.25813 21.3558 11.5001 24.124C18.742 21.3558 20.5368 16.3541 21.164 13.7987C21.2019 13.6442 21.2308 13.2565 21.2308 13.0004V4.9095ZM23.0001 13.0004C23.0001 13.2932 22.9718 13.8623 22.8791 14.2404C22.1528 17.1999 20.0242 22.9349 11.7972 25.9474C11.605 26.0178 11.3952 26.0178 11.2029 25.9474C2.9759 22.9349 0.847346 17.1999 0.121005 14.2404C0.0282915 13.8623 6.10352e-05 13.2932 6.10352e-05 13.0004V4.6426C0.000157837 3.69663 0.797371 3.07811 1.58154 3.09552C2.572 3.11741 3.71865 2.82197 5.14765 1.94289C8.28908 0.0104685 10.83 0.000183105 11.5001 0.000183105C12.1701 0.000183105 14.711 0.0104685 17.8525 1.94289C19.2815 2.82199 20.4281 3.11741 21.4186 3.09552C22.2027 3.07811 23 3.69658 23.0001 4.6426V13.0004Z" fill="#505050"/>
<path d="M14.9706 8.76559C15.2974 8.39333 15.8572 8.3632 16.2203 8.69828C16.5834 9.03338 16.6128 9.60733 16.286 9.97964L10.9656 16.0404C10.4015 16.6828 9.41771 16.6788 8.85773 16.0333L6.7107 13.5568C6.38617 13.1825 6.41937 12.6094 6.78442 12.2766C7.1495 11.9439 7.70841 11.9769 8.03302 12.351L9.91513 14.5229L14.9706 8.76559Z" fill="#505050"/>
</svg>
