<svg width="26" height="18" viewBox="0 0 26 18" fill="none" xmlns="http://www.w3.org/2000/svg">
<path d="M2.24322 0.432251C1.04909 0.432251 0.0810547 1.40028 0.0810547 2.59441V15.0268C0.0810547 16.221 1.04909 17.189 2.24322 17.189H23.3243C24.5184 17.189 25.4865 16.221 25.4865 15.0268V2.59441C25.4865 1.40028 24.5184 0.432251 23.3243 0.432251H2.24322ZM24.6158 15.2435C24.6158 15.8406 24.1318 16.3246 23.5347 16.3246H2.03274C1.43567 16.3246 0.951656 15.8406 0.951656 15.2435V2.37773C0.951656 1.78067 1.43567 1.29665 2.03274 1.29665H23.5344C24.1315 1.29665 24.6155 1.78065 24.6155 2.3777L24.6158 15.2435Z" fill="white"/>
<path d="M10.1409 12.8374C11.1303 12.8374 12.0383 12.4955 12.7476 11.9253C13.4665 12.5106 14.388 12.8647 15.3944 12.8647C17.6797 12.8647 19.5405 11.046 19.5405 8.81063C19.5405 6.57529 17.6797 4.75658 15.3944 4.75658C14.3865 4.75658 13.4615 5.11062 12.743 5.69886C12.035 5.13111 11.1271 4.78978 10.1407 4.78978C7.8674 4.78978 6.027 6.59182 6.027 8.8135C6.02714 11.0372 7.86809 12.8374 10.1409 12.8374ZM15.3949 5.62713C17.1913 5.62713 18.6517 7.05409 18.6517 8.81063C18.6517 10.5657 17.1913 11.9947 15.3949 11.9947C14.6305 11.9947 13.9285 11.7326 13.3715 11.2988C13.9225 10.6155 14.255 9.75292 14.255 8.8135C14.255 7.87258 13.921 7.00845 13.3686 6.32387C13.925 5.8888 14.6286 5.62713 15.3949 5.62713Z" fill="white"/>
</svg>
